<mxfile host="www.draw.io" modified="2019-12-18T00:46:08.542Z" agent="Mozilla/5.0 (Windows NT 10.0; WOW64) AppleWebKit/537.36 (KHTML, like Gecko) Chrome/63.0.3239.132 Safari/537.36" etag="_Cl9ZeYECItB1uJz_r4E" version="12.4.3" type="github" pages="1">
  <diagram id="LY2yrGZ_zxD_O-VtdUtD" name="Page-1">
    <mxGraphModel dx="868" dy="399" grid="1" gridSize="10" guides="1" tooltips="1" connect="1" arrows="1" fold="1" page="1" pageScale="1" pageWidth="827" pageHeight="1169" math="0" shadow="0">
      <root>
        <mxCell id="0"/>
        <mxCell id="1" parent="0"/>
        <mxCell id="cywywEzososkVelHdlFO-1" value="APP" style="shape=umlLifeline;perimeter=lifelinePerimeter;whiteSpace=wrap;html=1;container=1;collapsible=0;recursiveResize=0;outlineConnect=0;" vertex="1" parent="1">
          <mxGeometry x="20" y="20" width="100" height="740" as="geometry"/>
        </mxCell>
        <mxCell id="cywywEzososkVelHdlFO-2" value="v114.com" style="shape=umlLifeline;perimeter=lifelinePerimeter;whiteSpace=wrap;html=1;container=1;collapsible=0;recursiveResize=0;outlineConnect=0;" vertex="1" parent="1">
          <mxGeometry x="220" y="20" width="100" height="740" as="geometry"/>
        </mxCell>
        <mxCell id="cywywEzososkVelHdlFO-5" value="" style="html=1;points=[];perimeter=orthogonalPerimeter;" vertex="1" parent="cywywEzososkVelHdlFO-2">
          <mxGeometry x="45" y="90" width="10" height="80" as="geometry"/>
        </mxCell>
        <mxCell id="cywywEzososkVelHdlFO-3" value="butel.com" style="shape=umlLifeline;perimeter=lifelinePerimeter;whiteSpace=wrap;html=1;container=1;collapsible=0;recursiveResize=0;outlineConnect=0;" vertex="1" parent="1">
          <mxGeometry x="420" y="20" width="100" height="730" as="geometry"/>
        </mxCell>
        <mxCell id="cywywEzososkVelHdlFO-4" value="bank.com" style="shape=umlLifeline;perimeter=lifelinePerimeter;whiteSpace=wrap;html=1;container=1;collapsible=0;recursiveResize=0;outlineConnect=0;" vertex="1" parent="1">
          <mxGeometry x="620" y="20" width="100" height="740" as="geometry"/>
        </mxCell>
        <mxCell id="cywywEzososkVelHdlFO-8" value="" style="html=1;verticalAlign=bottom;endArrow=block;" edge="1" parent="1" target="cywywEzososkVelHdlFO-5">
          <mxGeometry x="1" y="71" width="80" relative="1" as="geometry">
            <mxPoint x="70" y="120" as="sourcePoint"/>
            <mxPoint x="150" y="120" as="targetPoint"/>
            <mxPoint x="10" y="1" as="offset"/>
          </mxGeometry>
        </mxCell>
      </root>
    </mxGraphModel>
  </diagram>
</mxfile>
